<mxfile host="app.diagrams.net" modified="2024-05-16T20:38:50.773Z" agent="Mozilla/5.0 (Windows NT 10.0; Win64; x64) AppleWebKit/537.36 (KHTML, like Gecko) Chrome/124.0.0.0 Safari/537.36" etag="ehGe5-Ewfbq8SnqK8yX_" version="24.4.3" type="device">
  <diagram name="Pagina-1" id="nFwg7w9rd4U-h5GDvQUP">
    <mxGraphModel dx="1290" dy="556" grid="0" gridSize="10" guides="1" tooltips="1" connect="1" arrows="1" fold="1" page="1" pageScale="1" pageWidth="827" pageHeight="1169" math="0" shadow="0">
      <root>
        <mxCell id="0" />
        <mxCell id="1" parent="0" />
        <mxCell id="GIDoXzQEMwkHhOnKC9sn-1" value="&lt;span style=&quot;text-wrap: nowrap;&quot;&gt;GoToImagePage&lt;/span&gt;" style="shape=umlLifeline;perimeter=lifelinePerimeter;whiteSpace=wrap;html=1;container=0;dropTarget=0;collapsible=0;recursiveResize=0;outlineConnect=0;portConstraint=eastwest;newEdgeStyle={&quot;edgeStyle&quot;:&quot;elbowEdgeStyle&quot;,&quot;elbow&quot;:&quot;vertical&quot;,&quot;curved&quot;:0,&quot;rounded&quot;:0};" parent="1" vertex="1">
          <mxGeometry x="88" y="59" width="155" height="491" as="geometry" />
        </mxCell>
        <mxCell id="GIDoXzQEMwkHhOnKC9sn-2" value="" style="html=1;points=[];perimeter=orthogonalPerimeter;outlineConnect=0;targetShapes=umlLifeline;portConstraint=eastwest;newEdgeStyle={&quot;edgeStyle&quot;:&quot;elbowEdgeStyle&quot;,&quot;elbow&quot;:&quot;vertical&quot;,&quot;curved&quot;:0,&quot;rounded&quot;:0};" parent="GIDoXzQEMwkHhOnKC9sn-1" vertex="1">
          <mxGeometry x="72.5" y="70" width="10" height="410" as="geometry" />
        </mxCell>
        <mxCell id="GIDoXzQEMwkHhOnKC9sn-3" value="DoGet" style="html=1;verticalAlign=bottom;startArrow=circle;startFill=1;endArrow=open;startSize=6;endSize=8;curved=0;rounded=0;" parent="1" edge="1">
          <mxGeometry width="80" relative="1" as="geometry">
            <mxPoint x="80" y="149" as="sourcePoint" />
            <mxPoint x="160" y="149" as="targetPoint" />
            <mxPoint as="offset" />
          </mxGeometry>
        </mxCell>
        <mxCell id="GIDoXzQEMwkHhOnKC9sn-4" value="GoToImagePage" style="text;html=1;align=center;verticalAlign=middle;resizable=0;points=[];autosize=1;strokeColor=none;fillColor=none;" parent="1" vertex="1">
          <mxGeometry x="28" y="20" width="110" height="30" as="geometry" />
        </mxCell>
        <mxCell id="GIDoXzQEMwkHhOnKC9sn-5" value="&lt;div&gt;Get&lt;/div&gt;&lt;div&gt;/GoToImagePage&lt;/div&gt;&lt;div&gt;?albumId=albumId&lt;/div&gt;&lt;div&gt;?imageId=imageId&lt;/div&gt;&lt;div&gt;From: Album.html&lt;/div&gt;&lt;div&gt;&lt;br&gt;&lt;/div&gt;" style="text;html=1;align=center;verticalAlign=middle;resizable=0;points=[];autosize=1;strokeColor=none;fillColor=none;" parent="1" vertex="1">
          <mxGeometry x="40" y="170" width="120" height="100" as="geometry" />
        </mxCell>
        <mxCell id="GIDoXzQEMwkHhOnKC9sn-6" value="" style="endArrow=classic;html=1;rounded=0;" parent="1" target="GIDoXzQEMwkHhOnKC9sn-10" edge="1">
          <mxGeometry width="50" height="50" relative="1" as="geometry">
            <mxPoint x="170" y="491" as="sourcePoint" />
            <mxPoint x="590" y="491" as="targetPoint" />
          </mxGeometry>
        </mxCell>
        <mxCell id="GIDoXzQEMwkHhOnKC9sn-7" value="TemplateEngine" style="shape=umlLifeline;perimeter=lifelinePerimeter;whiteSpace=wrap;html=1;container=0;dropTarget=0;collapsible=0;recursiveResize=0;outlineConnect=0;portConstraint=eastwest;newEdgeStyle={&quot;edgeStyle&quot;:&quot;elbowEdgeStyle&quot;,&quot;elbow&quot;:&quot;vertical&quot;,&quot;curved&quot;:0,&quot;rounded&quot;:0};" parent="1" vertex="1">
          <mxGeometry x="920" y="59.5" width="119" height="490.5" as="geometry" />
        </mxCell>
        <mxCell id="GIDoXzQEMwkHhOnKC9sn-8" value="" style="html=1;points=[];perimeter=orthogonalPerimeter;outlineConnect=0;targetShapes=umlLifeline;portConstraint=eastwest;newEdgeStyle={&quot;edgeStyle&quot;:&quot;elbowEdgeStyle&quot;,&quot;elbow&quot;:&quot;vertical&quot;,&quot;curved&quot;:0,&quot;rounded&quot;:0};" parent="GIDoXzQEMwkHhOnKC9sn-7" vertex="1">
          <mxGeometry x="54" y="455" width="10" height="20" as="geometry" />
        </mxCell>
        <mxCell id="GIDoXzQEMwkHhOnKC9sn-9" value="ctx" style="shape=umlLifeline;perimeter=lifelinePerimeter;whiteSpace=wrap;html=1;container=0;dropTarget=0;collapsible=0;recursiveResize=0;outlineConnect=0;portConstraint=eastwest;newEdgeStyle={&quot;edgeStyle&quot;:&quot;elbowEdgeStyle&quot;,&quot;elbow&quot;:&quot;vertical&quot;,&quot;curved&quot;:0,&quot;rounded&quot;:0};" parent="1" vertex="1">
          <mxGeometry x="850" y="59" width="50" height="491" as="geometry" />
        </mxCell>
        <mxCell id="GIDoXzQEMwkHhOnKC9sn-10" value="" style="html=1;points=[];perimeter=orthogonalPerimeter;outlineConnect=0;targetShapes=umlLifeline;portConstraint=eastwest;newEdgeStyle={&quot;edgeStyle&quot;:&quot;elbowEdgeStyle&quot;,&quot;elbow&quot;:&quot;vertical&quot;,&quot;curved&quot;:0,&quot;rounded&quot;:0};" parent="GIDoXzQEMwkHhOnKC9sn-9" vertex="1">
          <mxGeometry x="20" y="355" width="10" height="100" as="geometry" />
        </mxCell>
        <mxCell id="GIDoXzQEMwkHhOnKC9sn-11" value="" style="endArrow=classic;html=1;rounded=0;" parent="1" target="GIDoXzQEMwkHhOnKC9sn-8" edge="1">
          <mxGeometry width="50" height="50" relative="1" as="geometry">
            <mxPoint x="170" y="530" as="sourcePoint" />
            <mxPoint x="693.9999999999998" y="530" as="targetPoint" />
          </mxGeometry>
        </mxCell>
        <mxCell id="GIDoXzQEMwkHhOnKC9sn-12" value="process(ctx, &quot;Image.html&quot;)" style="text;html=1;align=center;verticalAlign=middle;resizable=0;points=[];autosize=1;strokeColor=none;fillColor=none;" parent="1" vertex="1">
          <mxGeometry x="265" y="505" width="160" height="30" as="geometry" />
        </mxCell>
        <mxCell id="GIDoXzQEMwkHhOnKC9sn-13" value="ImageDAO" style="shape=umlLifeline;perimeter=lifelinePerimeter;whiteSpace=wrap;html=1;container=0;dropTarget=0;collapsible=0;recursiveResize=0;outlineConnect=0;portConstraint=eastwest;newEdgeStyle={&quot;edgeStyle&quot;:&quot;elbowEdgeStyle&quot;,&quot;elbow&quot;:&quot;vertical&quot;,&quot;curved&quot;:0,&quot;rounded&quot;:0};" parent="1" vertex="1">
          <mxGeometry x="560" y="59.5" width="100" height="490.5" as="geometry" />
        </mxCell>
        <mxCell id="GIDoXzQEMwkHhOnKC9sn-14" value="" style="html=1;points=[];perimeter=orthogonalPerimeter;outlineConnect=0;targetShapes=umlLifeline;portConstraint=eastwest;newEdgeStyle={&quot;edgeStyle&quot;:&quot;elbowEdgeStyle&quot;,&quot;elbow&quot;:&quot;vertical&quot;,&quot;curved&quot;:0,&quot;rounded&quot;:0};" parent="GIDoXzQEMwkHhOnKC9sn-13" vertex="1">
          <mxGeometry x="47.5" y="250" width="10" height="90" as="geometry" />
        </mxCell>
        <mxCell id="GIDoXzQEMwkHhOnKC9sn-15" value="" style="endArrow=classic;html=1;rounded=0;exitX=1.02;exitY=0.085;exitDx=0;exitDy=0;exitPerimeter=0;" parent="1" edge="1">
          <mxGeometry width="50" height="50" relative="1" as="geometry">
            <mxPoint x="172.49999999999986" y="319.00000000000006" as="sourcePoint" />
            <mxPoint x="607.5" y="319" as="targetPoint" />
          </mxGeometry>
        </mxCell>
        <mxCell id="GIDoXzQEMwkHhOnKC9sn-16" value="&lt;font style=&quot;font-size: 11px;&quot;&gt;new ImageDAO()&lt;/font&gt;" style="text;html=1;align=center;verticalAlign=middle;resizable=0;points=[];autosize=1;strokeColor=none;fillColor=none;" parent="1" vertex="1">
          <mxGeometry x="287.5" y="298" width="110" height="30" as="geometry" />
        </mxCell>
        <mxCell id="GIDoXzQEMwkHhOnKC9sn-17" value="" style="endArrow=classic;html=1;rounded=0;exitX=1.02;exitY=0.085;exitDx=0;exitDy=0;exitPerimeter=0;" parent="1" edge="1">
          <mxGeometry width="50" height="50" relative="1" as="geometry">
            <mxPoint x="172.49999999999986" y="339.00000000000006" as="sourcePoint" />
            <mxPoint x="607.5" y="339" as="targetPoint" />
          </mxGeometry>
        </mxCell>
        <mxCell id="GIDoXzQEMwkHhOnKC9sn-18" value="findImageById(imageId)" style="text;html=1;align=center;verticalAlign=middle;resizable=0;points=[];autosize=1;strokeColor=none;fillColor=none;" parent="1" vertex="1">
          <mxGeometry x="267.5" y="317" width="150" height="30" as="geometry" />
        </mxCell>
        <mxCell id="GIDoXzQEMwkHhOnKC9sn-19" value="image" style="html=1;verticalAlign=bottom;endArrow=open;dashed=1;endSize=8;edgeStyle=elbowEdgeStyle;elbow=vertical;curved=0;rounded=0;" parent="1" edge="1">
          <mxGeometry x="0.4561" relative="1" as="geometry">
            <mxPoint x="173" y="356.21" as="targetPoint" />
            <Array as="points">
              <mxPoint x="452.5" y="356.21" />
            </Array>
            <mxPoint x="607.5" y="356.21000000000004" as="sourcePoint" />
            <mxPoint as="offset" />
          </mxGeometry>
        </mxCell>
        <mxCell id="GIDoXzQEMwkHhOnKC9sn-20" value="" style="endArrow=classic;html=1;rounded=0;" parent="1" target="GIDoXzQEMwkHhOnKC9sn-10" edge="1">
          <mxGeometry width="50" height="50" relative="1" as="geometry">
            <mxPoint x="170" y="428" as="sourcePoint" />
            <mxPoint x="590" y="428" as="targetPoint" />
          </mxGeometry>
        </mxCell>
        <mxCell id="GIDoXzQEMwkHhOnKC9sn-21" value="" style="endArrow=classic;html=1;rounded=0;" parent="1" target="GIDoXzQEMwkHhOnKC9sn-10" edge="1">
          <mxGeometry width="50" height="50" relative="1" as="geometry">
            <mxPoint x="170" y="448" as="sourcePoint" />
            <mxPoint x="590" y="448" as="targetPoint" />
          </mxGeometry>
        </mxCell>
        <mxCell id="GIDoXzQEMwkHhOnKC9sn-22" value="" style="endArrow=classic;html=1;rounded=0;" parent="1" target="GIDoXzQEMwkHhOnKC9sn-10" edge="1">
          <mxGeometry width="50" height="50" relative="1" as="geometry">
            <mxPoint x="170" y="470" as="sourcePoint" />
            <mxPoint x="590" y="470" as="targetPoint" />
          </mxGeometry>
        </mxCell>
        <mxCell id="GIDoXzQEMwkHhOnKC9sn-23" value="&lt;font style=&quot;font-size: 10px;&quot;&gt;setVariable(image)&lt;/font&gt;" style="text;html=1;align=center;verticalAlign=middle;resizable=0;points=[];autosize=1;strokeColor=none;fillColor=none;" parent="1" vertex="1">
          <mxGeometry x="270" y="407" width="110" height="30" as="geometry" />
        </mxCell>
        <mxCell id="GIDoXzQEMwkHhOnKC9sn-24" value="&lt;font style=&quot;font-size: 10px;&quot;&gt;setVariable(albumId)&lt;/font&gt;" style="text;html=1;align=center;verticalAlign=middle;resizable=0;points=[];autosize=1;strokeColor=none;fillColor=none;" parent="1" vertex="1">
          <mxGeometry x="265" y="425" width="120" height="30" as="geometry" />
        </mxCell>
        <mxCell id="GIDoXzQEMwkHhOnKC9sn-25" value="&lt;font style=&quot;font-size: 10px;&quot;&gt;setVariable(otherUserAlbums)&lt;/font&gt;" style="text;html=1;align=center;verticalAlign=middle;resizable=0;points=[];autosize=1;strokeColor=none;fillColor=none;" parent="1" vertex="1">
          <mxGeometry x="260" y="445" width="160" height="30" as="geometry" />
        </mxCell>
        <mxCell id="GIDoXzQEMwkHhOnKC9sn-26" value="&lt;font style=&quot;font-size: 10px;&quot;&gt;setVariable(comments)&lt;/font&gt;" style="text;html=1;align=center;verticalAlign=middle;resizable=0;points=[];autosize=1;strokeColor=none;fillColor=none;" parent="1" vertex="1">
          <mxGeometry x="260" y="465" width="130" height="30" as="geometry" />
        </mxCell>
        <mxCell id="GIDoXzQEMwkHhOnKC9sn-27" value="" style="endArrow=classic;html=1;rounded=0;" parent="1" target="GIDoXzQEMwkHhOnKC9sn-10" edge="1">
          <mxGeometry width="50" height="50" relative="1" as="geometry">
            <mxPoint x="170" y="509" as="sourcePoint" />
            <mxPoint x="590" y="509" as="targetPoint" />
          </mxGeometry>
        </mxCell>
        <mxCell id="GIDoXzQEMwkHhOnKC9sn-28" value="&lt;font style=&quot;font-size: 10px;&quot;&gt;setVariable(userProperty&lt;/font&gt;&lt;span style=&quot;background-color: initial; font-size: 10px;&quot;&gt;)&lt;/span&gt;" style="text;html=1;align=center;verticalAlign=middle;resizable=0;points=[];autosize=1;strokeColor=none;fillColor=none;" parent="1" vertex="1">
          <mxGeometry x="255" y="485" width="140" height="30" as="geometry" />
        </mxCell>
        <mxCell id="GIDoXzQEMwkHhOnKC9sn-29" value="AlbumDAO" style="shape=umlLifeline;perimeter=lifelinePerimeter;whiteSpace=wrap;html=1;container=0;dropTarget=0;collapsible=0;recursiveResize=0;outlineConnect=0;portConstraint=eastwest;newEdgeStyle={&quot;edgeStyle&quot;:&quot;elbowEdgeStyle&quot;,&quot;elbow&quot;:&quot;vertical&quot;,&quot;curved&quot;:0,&quot;rounded&quot;:0};" parent="1" vertex="1">
          <mxGeometry x="320" y="59.5" width="100" height="490.5" as="geometry" />
        </mxCell>
        <mxCell id="GIDoXzQEMwkHhOnKC9sn-30" value="" style="html=1;points=[];perimeter=orthogonalPerimeter;outlineConnect=0;targetShapes=umlLifeline;portConstraint=eastwest;newEdgeStyle={&quot;edgeStyle&quot;:&quot;elbowEdgeStyle&quot;,&quot;elbow&quot;:&quot;vertical&quot;,&quot;curved&quot;:0,&quot;rounded&quot;:0};" parent="GIDoXzQEMwkHhOnKC9sn-29" vertex="1">
          <mxGeometry x="45" y="69.5" width="10" height="80.5" as="geometry" />
        </mxCell>
        <mxCell id="GIDoXzQEMwkHhOnKC9sn-31" value="" style="endArrow=classic;html=1;rounded=0;exitX=1.02;exitY=0.085;exitDx=0;exitDy=0;exitPerimeter=0;" parent="1" edge="1">
          <mxGeometry width="50" height="50" relative="1" as="geometry">
            <mxPoint x="172.24999999999986" y="140.00000000000006" as="sourcePoint" />
            <mxPoint x="360" y="140" as="targetPoint" />
          </mxGeometry>
        </mxCell>
        <mxCell id="GIDoXzQEMwkHhOnKC9sn-32" value="&lt;font style=&quot;font-size: 10px;&quot;&gt;new AlbumDAO()&lt;/font&gt;" style="text;html=1;align=center;verticalAlign=middle;resizable=0;points=[];autosize=1;strokeColor=none;fillColor=none;" parent="1" vertex="1">
          <mxGeometry x="195" y="115" width="100" height="30" as="geometry" />
        </mxCell>
        <mxCell id="GIDoXzQEMwkHhOnKC9sn-33" value="" style="endArrow=classic;html=1;rounded=0;exitX=1.02;exitY=0.085;exitDx=0;exitDy=0;exitPerimeter=0;" parent="1" target="GIDoXzQEMwkHhOnKC9sn-30" edge="1">
          <mxGeometry width="50" height="50" relative="1" as="geometry">
            <mxPoint x="169.99999999999986" y="156.00000000000006" as="sourcePoint" />
            <mxPoint x="357.75" y="156" as="targetPoint" />
          </mxGeometry>
        </mxCell>
        <mxCell id="GIDoXzQEMwkHhOnKC9sn-34" value="&lt;span style=&quot;font-size: 10px;&quot;&gt;getUserIdByAlbumId(albumId)&lt;/span&gt;" style="text;html=1;align=center;verticalAlign=middle;resizable=0;points=[];autosize=1;strokeColor=none;fillColor=none;" parent="1" vertex="1">
          <mxGeometry x="162.75" y="134" width="160" height="30" as="geometry" />
        </mxCell>
        <mxCell id="GIDoXzQEMwkHhOnKC9sn-36" value="userId" style="html=1;verticalAlign=bottom;endArrow=open;dashed=1;endSize=8;edgeStyle=elbowEdgeStyle;elbow=vertical;curved=0;rounded=0;" parent="1" source="GIDoXzQEMwkHhOnKC9sn-30" edge="1">
          <mxGeometry x="0.4561" relative="1" as="geometry">
            <mxPoint x="172.5" y="173.20999999999998" as="targetPoint" />
            <Array as="points" />
            <mxPoint x="507.5" y="173" as="sourcePoint" />
            <mxPoint as="offset" />
          </mxGeometry>
        </mxCell>
        <mxCell id="GIDoXzQEMwkHhOnKC9sn-37" value="" style="endArrow=classic;html=1;rounded=0;exitX=1.02;exitY=0.085;exitDx=0;exitDy=0;exitPerimeter=0;" parent="1" edge="1">
          <mxGeometry width="50" height="50" relative="1" as="geometry">
            <mxPoint x="169.99999999999986" y="190.00000000000006" as="sourcePoint" />
            <mxPoint x="365" y="190" as="targetPoint" />
          </mxGeometry>
        </mxCell>
        <mxCell id="GIDoXzQEMwkHhOnKC9sn-38" value="&lt;span style=&quot;font-size: 10px;&quot;&gt;findAlbumsByUserSorted(userId)&lt;/span&gt;" style="text;html=1;align=center;verticalAlign=middle;resizable=0;points=[];autosize=1;strokeColor=none;fillColor=none;" parent="1" vertex="1">
          <mxGeometry x="175.75" y="167" width="170" height="30" as="geometry" />
        </mxCell>
        <mxCell id="GIDoXzQEMwkHhOnKC9sn-39" value="userAlbums" style="html=1;verticalAlign=bottom;endArrow=open;dashed=1;endSize=8;edgeStyle=elbowEdgeStyle;elbow=vertical;curved=0;rounded=0;" parent="1" edge="1">
          <mxGeometry x="0.4591" relative="1" as="geometry">
            <mxPoint x="170" y="206.29999999999995" as="targetPoint" />
            <Array as="points" />
            <mxPoint x="362.5" y="206.09000000000003" as="sourcePoint" />
            <mxPoint as="offset" />
          </mxGeometry>
        </mxCell>
        <mxCell id="GIDoXzQEMwkHhOnKC9sn-40" value="CommentDAO" style="shape=umlLifeline;perimeter=lifelinePerimeter;whiteSpace=wrap;html=1;container=0;dropTarget=0;collapsible=0;recursiveResize=0;outlineConnect=0;portConstraint=eastwest;newEdgeStyle={&quot;edgeStyle&quot;:&quot;elbowEdgeStyle&quot;,&quot;elbow&quot;:&quot;vertical&quot;,&quot;curved&quot;:0,&quot;rounded&quot;:0};" parent="1" vertex="1">
          <mxGeometry x="440" y="59" width="100" height="491" as="geometry" />
        </mxCell>
        <mxCell id="GIDoXzQEMwkHhOnKC9sn-41" value="" style="html=1;points=[];perimeter=orthogonalPerimeter;outlineConnect=0;targetShapes=umlLifeline;portConstraint=eastwest;newEdgeStyle={&quot;edgeStyle&quot;:&quot;elbowEdgeStyle&quot;,&quot;elbow&quot;:&quot;vertical&quot;,&quot;curved&quot;:0,&quot;rounded&quot;:0};" parent="GIDoXzQEMwkHhOnKC9sn-40" vertex="1">
          <mxGeometry x="45" y="169" width="10" height="70" as="geometry" />
        </mxCell>
        <mxCell id="GIDoXzQEMwkHhOnKC9sn-42" value="" style="endArrow=classic;html=1;rounded=0;" parent="1" edge="1">
          <mxGeometry width="50" height="50" relative="1" as="geometry">
            <mxPoint x="170.5" y="250" as="sourcePoint" />
            <mxPoint x="484.75" y="250" as="targetPoint" />
          </mxGeometry>
        </mxCell>
        <mxCell id="GIDoXzQEMwkHhOnKC9sn-43" value="&lt;span style=&quot;font-size: 10px;&quot;&gt;new CommentDAO()&lt;/span&gt;" style="text;html=1;align=center;verticalAlign=middle;resizable=0;points=[];autosize=1;strokeColor=none;fillColor=none;" parent="1" vertex="1">
          <mxGeometry x="360" y="225" width="120" height="30" as="geometry" />
        </mxCell>
        <mxCell id="GIDoXzQEMwkHhOnKC9sn-44" value="" style="endArrow=classic;html=1;rounded=0;" parent="1" edge="1">
          <mxGeometry width="50" height="50" relative="1" as="geometry">
            <mxPoint x="171.13" y="270" as="sourcePoint" />
            <mxPoint x="484.88" y="270" as="targetPoint" />
          </mxGeometry>
        </mxCell>
        <mxCell id="GIDoXzQEMwkHhOnKC9sn-45" value="&lt;span style=&quot;font-size: 10px;&quot;&gt;findCommentsByImageId(imageId)&lt;/span&gt;" style="text;html=1;align=center;verticalAlign=middle;resizable=0;points=[];autosize=1;strokeColor=none;fillColor=none;" parent="1" vertex="1">
          <mxGeometry x="220" y="248" width="180" height="30" as="geometry" />
        </mxCell>
        <mxCell id="GIDoXzQEMwkHhOnKC9sn-46" value="comments" style="html=1;verticalAlign=bottom;endArrow=open;dashed=1;endSize=8;edgeStyle=elbowEdgeStyle;elbow=vertical;curved=0;rounded=0;" parent="1" edge="1">
          <mxGeometry x="0.4591" relative="1" as="geometry">
            <mxPoint x="170.5" y="288" as="targetPoint" />
            <Array as="points" />
            <mxPoint x="484" y="287.71000000000004" as="sourcePoint" />
            <mxPoint as="offset" />
          </mxGeometry>
        </mxCell>
        <mxCell id="Y448-95tRjfH0gJQnsth-1" value="ErrorHandler" style="shape=umlLifeline;perimeter=lifelinePerimeter;whiteSpace=wrap;html=1;container=0;dropTarget=0;collapsible=0;recursiveResize=0;outlineConnect=0;portConstraint=eastwest;newEdgeStyle={&quot;edgeStyle&quot;:&quot;elbowEdgeStyle&quot;,&quot;elbow&quot;:&quot;vertical&quot;,&quot;curved&quot;:0,&quot;rounded&quot;:0};" vertex="1" parent="1">
          <mxGeometry x="710" y="59.5" width="100" height="490.5" as="geometry" />
        </mxCell>
        <mxCell id="Y448-95tRjfH0gJQnsth-2" value="" style="html=1;points=[];perimeter=orthogonalPerimeter;outlineConnect=0;targetShapes=umlLifeline;portConstraint=eastwest;newEdgeStyle={&quot;edgeStyle&quot;:&quot;elbowEdgeStyle&quot;,&quot;elbow&quot;:&quot;vertical&quot;,&quot;curved&quot;:0,&quot;rounded&quot;:0};" vertex="1" parent="Y448-95tRjfH0gJQnsth-1">
          <mxGeometry x="45.5" y="140" width="10" height="220" as="geometry" />
        </mxCell>
        <mxCell id="Y448-95tRjfH0gJQnsth-3" value="" style="endArrow=classic;html=1;rounded=0;" edge="1" parent="1" target="Y448-95tRjfH0gJQnsth-2">
          <mxGeometry width="50" height="50" relative="1" as="geometry">
            <mxPoint x="170" y="411" as="sourcePoint" />
            <mxPoint x="750" y="410" as="targetPoint" />
          </mxGeometry>
        </mxCell>
        <mxCell id="Y448-95tRjfH0gJQnsth-4" value="&lt;span style=&quot;font-size: 10px;&quot;&gt;[image==null || contained==false] displayError (request, response, &quot;error string&quot;)&lt;/span&gt;" style="text;html=1;align=center;verticalAlign=middle;resizable=0;points=[];autosize=1;strokeColor=none;fillColor=none;" vertex="1" parent="1">
          <mxGeometry x="369" y="390" width="380" height="30" as="geometry" />
        </mxCell>
        <mxCell id="Y448-95tRjfH0gJQnsth-5" value="" style="endArrow=classic;html=1;rounded=0;exitX=1.02;exitY=0.085;exitDx=0;exitDy=0;exitPerimeter=0;" edge="1" parent="1">
          <mxGeometry width="50" height="50" relative="1" as="geometry">
            <mxPoint x="169" y="376" as="sourcePoint" />
            <mxPoint x="609.5" y="376" as="targetPoint" />
          </mxGeometry>
        </mxCell>
        <mxCell id="Y448-95tRjfH0gJQnsth-6" value="&lt;span style=&quot;font-size: 10px;&quot;&gt;albumContainsImage(albumId, imageId)&lt;/span&gt;" style="text;html=1;align=center;verticalAlign=middle;resizable=0;points=[];autosize=1;strokeColor=none;fillColor=none;" vertex="1" parent="1">
          <mxGeometry x="206" y="351" width="200" height="30" as="geometry" />
        </mxCell>
        <mxCell id="Y448-95tRjfH0gJQnsth-7" value="contained" style="html=1;verticalAlign=bottom;endArrow=open;dashed=1;endSize=8;edgeStyle=elbowEdgeStyle;elbow=vertical;curved=0;rounded=0;" edge="1" parent="1">
          <mxGeometry x="0.4591" relative="1" as="geometry">
            <mxPoint x="164" y="392" as="targetPoint" />
            <Array as="points" />
            <mxPoint x="607.5" y="392" as="sourcePoint" />
            <mxPoint as="offset" />
          </mxGeometry>
        </mxCell>
        <mxCell id="Y448-95tRjfH0gJQnsth-8" value="" style="endArrow=classic;html=1;rounded=0;" edge="1" parent="1" target="Y448-95tRjfH0gJQnsth-1">
          <mxGeometry width="50" height="50" relative="1" as="geometry">
            <mxPoint x="169.5" y="225" as="sourcePoint" />
            <mxPoint x="670.5" y="225" as="targetPoint" />
          </mxGeometry>
        </mxCell>
        <mxCell id="Y448-95tRjfH0gJQnsth-9" value="&lt;span style=&quot;font-size: 10px;&quot;&gt;[album==null] displayError (request, response, &quot;album not found&quot;)&lt;/span&gt;" style="text;html=1;align=center;verticalAlign=middle;resizable=0;points=[];autosize=1;strokeColor=none;fillColor=none;" vertex="1" parent="1">
          <mxGeometry x="411" y="198" width="310" height="30" as="geometry" />
        </mxCell>
      </root>
    </mxGraphModel>
  </diagram>
</mxfile>
